<?xml version="1.0" standalone="no"?>
<svg version="1.0" xmlns="http://www.w3.org/2000/svg"
 width="35" height="35" viewBox="0 0 720.000000 720.000000"
 preserveAspectRatio="xMidYMid meet">

<g transform="translate(0.000000,720.000000) scale(0.100000,-0.100000)"
fill="white" stroke="none">
<path d="M3310 7189 c-1916 -164 -3363 -1779 -3307 -3689 32 -1106 558 -2121
1440 -2781 511 -382 1086 -612 1742 -695 198 -26 635 -26 830 -1 358 47 676
130 980 259 1102 465 1902 1445 2134 2613 53 264 65 401 65 705 1 310 -12 441
-69 725 -339 1676 -1832 2886 -3545 2874 -96 -1 -218 -5 -270 -10z m628 -501
c384 -418 667 -823 881 -1263 103 -212 108 -225 90 -235 -19 -12 -211 -65
-344 -95 -208 -46 -451 -82 -697 -100 l-88 -7 0 926 c0 520 4 926 9 926 5 0
72 -69 149 -152z m-518 -784 l0 -916 -82 7 c-254 20 -435 44 -633 85 -114 23
-362 87 -381 98 -25 14 156 386 313 645 122 201 309 464 458 642 77 93 314
355 321 355 2 0 4 -412 4 -916z m-653 714 c-310 -388 -565 -803 -737 -1203
-24 -55 -47 -104 -50 -108 -13 -15 -357 143 -535 246 -38 22 -121 71 -183 110
l-112 69 50 58 c190 220 546 499 846 664 126 69 336 162 474 211 103 36 333
103 357 104 7 1 -43 -68 -110 -151z m1704 113 c528 -149 989 -415 1398 -806
46 -44 105 -105 132 -136 l49 -57 -112 -69 c-211 -131 -368 -215 -579 -308
l-100 -44 -26 62 c-15 34 -68 145 -119 247 -178 357 -383 671 -661 1013 -57
70 -100 127 -95 127 5 0 55 -13 113 -29z m-3422 -1349 c216 -139 472 -274 717
-377 l91 -38 -39 -131 c-89 -305 -168 -759 -168 -968 0 -31 -3 -63 -6 -72 -6
-14 -72 -16 -646 -16 l-641 0 7 103 c27 388 171 878 364 1237 85 158 194 330
210 330 3 0 53 -31 111 -68z m5285 -29 c261 -399 429 -868 491 -1364 8 -68 15
-143 15 -166 l0 -43 -620 0 -620 0 0 50 c0 81 -30 344 -56 500 -29 169 -78
378 -127 538 l-35 114 46 20 c275 119 523 250 722 379 58 38 108 69 113 69 4
0 36 -44 71 -97z m-1261 -559 c86 -278 153 -632 173 -911 l7 -103 -737 0 -736
0 0 428 0 429 158 12 c363 28 762 102 1052 195 25 8 49 13 55 12 5 -1 18 -29
28 -62z m-2746 16 c299 -84 653 -143 991 -166 l102 -7 0 -428 0 -429 -710 0
-710 0 0 58 c0 223 95 733 186 1001 2 8 11 10 22 6 9 -3 63 -19 119 -35z
m-677 -1455 c0 -247 92 -748 199 -1085 22 -68 39 -125 38 -126 -1 -1 -66 -30
-145 -63 -232 -99 -440 -208 -650 -339 -81 -51 -105 -62 -117 -52 -21 18 -167
244 -229 356 -151 275 -275 621 -335 936 -24 126 -51 335 -51 395 l0 43 645 0
645 0 0 -65z m1770 -414 l0 -480 -52 -5 c-29 -2 -114 -10 -188 -16 -265 -21
-560 -73 -823 -145 -70 -19 -130 -35 -132 -35 -8 0 -76 228 -115 385 -59 239
-110 574 -110 723 l0 52 710 0 710 0 0 -479z m1830 439 c0 -76 -30 -335 -56
-480 -49 -275 -158 -658 -185 -652 -8 2 -68 19 -134 38 -255 73 -583 132 -855
154 -74 6 -159 14 -187 16 l-53 5 0 480 0 479 735 0 735 0 0 -40z m1590 -3 c0
-23 -7 -98 -15 -166 -52 -415 -176 -804 -373 -1166 -59 -109 -205 -337 -227
-355 -12 -10 -36 1 -117 52 -199 125 -421 241 -636 334 -98 42 -113 51 -109
69 2 11 27 94 55 185 56 184 100 372 131 560 24 146 51 396 51 475 l0 55 620
0 620 0 0 -43z m-3420 -2129 l0 -861 -26 24 c-55 51 -256 280 -360 410 -192
240 -345 465 -486 716 -91 163 -191 372 -185 388 7 15 301 88 487 119 144 25
389 53 505 59 33 2 61 4 63 5 1 1 2 -386 2 -860z m590 841 c247 -22 536 -75
768 -140 58 -17 108 -32 110 -34 7 -7 -147 -310 -229 -450 -142 -243 -321
-497 -503 -715 -128 -153 -349 -390 -363 -390 -10 0 -13 173 -13 873 l0 872
57 -3 c32 -1 110 -7 173 -13z m-1905 -456 c191 -393 417 -744 699 -1086 112
-136 119 -129 -78 -76 -507 138 -989 416 -1393 804 -68 64 -123 120 -123 124
0 10 266 165 405 235 138 70 372 175 392 176 6 0 50 -80 98 -177z m3340 69
c186 -85 544 -285 545 -303 0 -4 -54 -58 -119 -122 -330 -318 -713 -562 -1130
-719 -103 -39 -372 -121 -377 -115 -2 1 46 63 106 136 273 335 516 716 690
1083 l64 136 46 -18 c25 -10 104 -45 175 -78z"/>
</g>
</svg>
